<svg xmlns="http://www.w3.org/2000/svg" viewBox="0 0 48 48">
  <path d="M16.482422 8.9921875 A 1.50015 1.50015 0 0 0 15.943359 9.1074219C15.943359 9.1074219 13.068414 10.279429 10.357422 13.464844C7.6464301 16.650259 5 21.927419 5 30 A 1.50015 1.50015 0 0 0 5.015625 30.21875 A 8.5 8.5 0 0 0 13.5 39 A 8.5 8.5 0 0 0 13.5 22 A 8.5 8.5 0 0 0 8.7089844 23.480469C9.5777265 19.777157 11.122152 17.196657 12.642578 15.410156C14.931586 12.720571 17.056641 11.892578 17.056641 11.892578 A 1.50015 1.50015 0 0 0 16.482422 8.9921875 z M 37.482422 8.9921875 A 1.50015 1.50015 0 0 0 36.943359 9.1074219C36.943359 9.1074219 34.068414 10.279429 31.357422 13.464844C28.64643 16.650259 26 21.927419 26 30 A 1.50015 1.50015 0 0 0 26.015625 30.21875 A 8.5 8.5 0 0 0 34.5 39 A 8.5 8.5 0 0 0 34.5 22 A 8.5 8.5 0 0 0 29.708984 23.480469C30.577727 19.777157 32.122152 17.196657 33.642578 15.410156C35.931586 12.720571 38.056641 11.892578 38.056641 11.892578 A 1.50015 1.50015 0 0 0 37.482422 8.9921875 z" fill="#FFFFFF" />
</svg>